<svg width="419" height="660" viewBox="0 0 419 660" fill="none" xmlns="http://www.w3.org/2000/svg">
<g filter="url(#filter0_d_0_4453)">
<path fill-rule="evenodd" clip-rule="evenodd" d="M88.776 55.5695H280.009C298.35 55.5695 313.217 69.8048 313.217 87.365V522.635C313.217 540.195 298.35 554.431 280.009 554.431H88.776C70.4357 554.431 55.5679 540.195 55.5679 522.635V87.365C55.5679 69.8048 70.4357 55.5695 88.776 55.5695Z" fill="#213648"/>
</g>
<path opacity="0.595562" fill-rule="evenodd" clip-rule="evenodd" d="M280.749 55H87.9226C78.92 55.549 70.6174 59.6569 63.0146 67.3239C67.9041 63.0559 76.6249 57.3446 88.1546 57.3446C88.1546 57.3446 272.83 57.3446 280.517 57.3446C292.046 57.3446 300.767 63.0559 305.656 67.3239C298.054 59.6569 289.751 55.549 280.749 55Z" fill="url(#paint0_linear_0_4453)" fill-opacity="0.65"/>
<path opacity="0.75" fill-rule="evenodd" clip-rule="evenodd" d="M307.999 517.671V89.9818C307.999 78.5065 303.782 74.2644 301.266 71.5405C298.75 68.8166 298.643 67.4272 302.258 69.4839C305.873 71.5405 313.103 77.5306 313.103 89.9818V517.671C313.103 530.122 305.873 536.112 302.258 538.169C298.643 540.225 298.75 538.836 301.266 536.112C303.782 533.388 307.999 529.146 307.999 517.671Z" fill="url(#paint1_linear_0_4453)"/>
<path opacity="0.75" fill-rule="evenodd" clip-rule="evenodd" d="M60.672 517.671V89.9818C60.672 78.5065 64.8894 74.2644 67.4053 71.5405C69.9212 68.8166 70.0283 67.4272 66.4134 69.4839C62.7984 71.5405 55.568 77.5306 55.568 89.9818V517.671C55.568 530.122 62.7984 536.112 66.4134 538.169C70.0283 540.225 69.9212 538.836 67.4053 536.112C64.8894 533.388 60.672 529.146 60.672 517.671Z" fill="url(#paint2_linear_0_4453)"/>
<path fill-rule="evenodd" clip-rule="evenodd" d="M53 158.556C53 157.452 53.8954 156.556 55 156.556H55.9645C57.0691 156.556 57.9645 157.452 57.9645 158.556V218.907C57.9645 220.012 57.0691 220.907 55.9645 220.907H55C53.8954 220.907 53 220.012 53 218.907V158.556Z" fill="#2E423C"/>
<path fill-rule="evenodd" clip-rule="evenodd" d="M310.535 211.043C310.535 209.939 311.431 209.043 312.535 209.043H313.5C314.605 209.043 315.5 209.939 315.5 211.043V253.993C315.5 255.098 314.605 255.993 313.5 255.993H312.535C311.431 255.993 310.535 255.098 310.535 253.993V211.043Z" fill="#2E423C"/>
<g clip-path="url(#clip0_0_4453)">
<path fill-rule="evenodd" clip-rule="evenodd" d="M161.676 67.4445L87.2698 67.4445C76.1653 67.4445 68.0742 75.0078 68.0742 84.8859V507.276C68.0742 520.155 80.5765 531.567 94.7134 531.567H274.046C287.664 531.567 300.686 520.067 300.686 507.276V86.0276C300.686 74.188 291.896 67.5149 281.49 67.4445L205.904 67.4445C205.618 67.4914 200.425 69.6262 198.231 75.0078C196.036 80.3893 191.621 84.6793 186.787 84.6793H181.172C178.874 84.6793 172.824 82.4496 169.76 75.0078C166.697 67.5659 161.963 67.4914 161.676 67.4445Z" fill="white"/>
<mask id="mask0_0_4453" style="mask-type:luminance" maskUnits="userSpaceOnUse" x="68" y="67" width="233" height="465">
<path fill-rule="evenodd" clip-rule="evenodd" d="M161.676 67.4445L87.2698 67.4445C76.1653 67.4445 68.0742 75.0078 68.0742 84.8859V507.276C68.0742 520.155 80.5765 531.567 94.7134 531.567H274.046C287.664 531.567 300.686 520.067 300.686 507.276V86.0276C300.686 74.188 291.896 67.5149 281.49 67.4445L205.904 67.4445C205.618 67.4914 200.425 69.6262 198.231 75.0078C196.036 80.3893 191.621 84.6793 186.787 84.6793H181.172C178.874 84.6793 172.824 82.4496 169.76 75.0078C166.697 67.5659 161.963 67.4914 161.676 67.4445Z" fill="white"/>
</mask>
<g mask="url(#mask0_0_4453)">
<rect x="68" y="67.4445" width="233" height="465" fill="url(#paint3_linear_0_4453)"/>
<path d="M147.504 196V178.672H143.376V176.032C144.699 176.032 145.765 175.909 146.576 175.664C147.397 175.408 148.011 175.045 148.416 174.576C148.821 174.096 149.061 173.525 149.136 172.864H152.24V196H147.504ZM157.496 196V193.696V192.512C157.496 191.339 157.714 190.325 158.152 189.472C158.589 188.608 159.165 187.861 159.88 187.232C160.605 186.592 161.394 186.032 162.248 185.552C163.112 185.072 163.976 184.619 164.84 184.192C165.704 183.765 166.493 183.339 167.208 182.912C167.933 182.475 168.514 181.989 168.952 181.456C169.389 180.923 169.608 180.293 169.608 179.568C169.608 178.64 169.282 177.883 168.632 177.296C167.992 176.709 167.112 176.416 165.992 176.416C164.829 176.416 163.842 176.752 163.032 177.424C162.221 178.096 161.72 179.109 161.528 180.464H157.064C157.085 178.992 157.426 177.659 158.088 176.464C158.76 175.259 159.762 174.304 161.096 173.6C162.429 172.896 164.104 172.544 166.12 172.544C167.848 172.544 169.336 172.837 170.584 173.424C171.842 174.011 172.813 174.827 173.496 175.872C174.178 176.917 174.52 178.139 174.52 179.536C174.52 180.699 174.306 181.701 173.88 182.544C173.453 183.387 172.888 184.107 172.184 184.704C171.48 185.301 170.706 185.824 169.864 186.272C169.021 186.72 168.178 187.136 167.336 187.52C166.504 187.904 165.736 188.299 165.032 188.704C164.328 189.099 163.762 189.547 163.336 190.048C162.909 190.549 162.696 191.152 162.696 191.856V192.064H174.488V196H157.496ZM182.704 179.856V184.864H177.584V179.856H182.704ZM182.704 190.912V195.904H177.584V190.912H182.704ZM196.451 172.864H201.043V186.96H204.611V190.88H201.043V196H196.547L196.563 190.88H185.907V187.04L196.451 172.864ZM190.227 186.96H196.563V178.48L190.227 186.96ZM215.435 196.352C213.995 196.352 212.651 196.075 211.403 195.52C210.155 194.965 209.137 194.187 208.347 193.184C207.558 192.171 207.115 190.987 207.019 189.632H211.467C211.659 190.528 212.086 191.259 212.747 191.824C213.409 192.379 214.241 192.656 215.243 192.656C216.353 192.656 217.323 192.395 218.155 191.872C218.998 191.349 219.627 190.517 220.043 189.376C220.47 188.235 220.619 186.741 220.491 184.896C220.193 185.461 219.777 185.957 219.243 186.384C218.721 186.8 218.107 187.125 217.403 187.36C216.699 187.584 215.915 187.696 215.051 187.696C213.483 187.696 212.091 187.403 210.875 186.816C209.67 186.219 208.721 185.376 208.027 184.288C207.345 183.189 207.003 181.888 207.003 180.384C207.003 178.869 207.366 177.52 208.091 176.336C208.817 175.152 209.83 174.224 211.131 173.552C212.433 172.88 213.958 172.544 215.707 172.544C217.67 172.544 219.361 173.013 220.779 173.952C222.209 174.88 223.302 176.203 224.059 177.92C224.827 179.627 225.211 181.637 225.211 183.952C225.211 186.715 224.817 189.019 224.027 190.864C223.249 192.699 222.129 194.075 220.667 194.992C219.206 195.899 217.462 196.352 215.435 196.352ZM215.851 183.984C216.502 183.984 217.131 183.84 217.739 183.552C218.358 183.253 218.865 182.88 219.259 182.432C219.654 181.984 219.851 181.52 219.851 181.04C219.862 180.005 219.697 179.12 219.355 178.384C219.025 177.637 218.555 177.067 217.947 176.672C217.35 176.277 216.651 176.08 215.851 176.08C215.115 176.08 214.459 176.251 213.883 176.592C213.307 176.933 212.854 177.413 212.523 178.032C212.193 178.651 212.027 179.365 212.027 180.176C212.027 181.381 212.379 182.32 213.083 182.992C213.787 183.653 214.71 183.984 215.851 183.984Z" fill="white"/>
</g>
</g>
<g filter="url(#filter1_d_0_4453)">
<rect x="75" y="222" width="218" height="87" rx="5" fill="#FBFCFE"/>
</g>
<g clip-path="url(#clip1_0_4453)">
<path d="M97.58 240.77L95.065 244.96V248H93.605V244.955L91.095 240.77H92.675L94.34 243.7L95.985 240.77H97.58ZM99.5677 248.1C99.061 248.1 98.6193 247.992 98.2427 247.775C97.8693 247.558 97.5793 247.252 97.3727 246.855C97.1693 246.458 97.0677 245.988 97.0677 245.445C97.0677 244.902 97.1693 244.427 97.3727 244.02C97.5793 243.613 97.8693 243.297 98.2427 243.07C98.6193 242.843 99.0627 242.73 99.5727 242.73C100.083 242.73 100.524 242.842 100.898 243.065C101.271 243.285 101.559 243.598 101.763 244.005C101.966 244.412 102.068 244.892 102.068 245.445C102.068 245.965 101.968 246.425 101.768 246.825C101.571 247.222 101.286 247.533 100.913 247.76C100.543 247.987 100.094 248.1 99.5677 248.1ZM99.5727 247.015C99.8293 247.015 100.036 246.94 100.193 246.79C100.349 246.64 100.463 246.443 100.533 246.2C100.606 245.953 100.643 245.685 100.643 245.395C100.643 245.122 100.609 244.863 100.543 244.62C100.479 244.377 100.369 244.18 100.213 244.03C100.056 243.88 99.8427 243.805 99.5727 243.805C99.316 243.805 99.1077 243.877 98.9477 244.02C98.791 244.16 98.676 244.352 98.6027 244.595C98.5293 244.835 98.4927 245.102 98.4927 245.395C98.4927 245.665 98.526 245.925 98.5927 246.175C98.6593 246.422 98.771 246.623 98.9277 246.78C99.0843 246.937 99.2993 247.015 99.5727 247.015ZM104.878 248.1C104.638 248.1 104.401 248.063 104.168 247.99C103.938 247.917 103.728 247.808 103.538 247.665C103.348 247.522 103.194 247.345 103.078 247.135C102.964 246.925 102.908 246.682 102.908 246.405V242.83H104.368V246.22C104.368 246.46 104.446 246.657 104.603 246.81C104.759 246.963 104.989 247.04 105.293 247.04C105.579 247.04 105.806 246.967 105.973 246.82C106.143 246.67 106.228 246.462 106.228 246.195V242.83H107.673V248H106.573L106.403 246.975C106.343 247.278 106.229 247.512 106.063 247.675C105.899 247.835 105.711 247.945 105.498 248.005C105.288 248.068 105.081 248.1 104.878 248.1ZM108.891 248V242.83H110.296V244.055C110.379 243.792 110.496 243.562 110.646 243.365C110.799 243.165 110.984 243.01 111.201 242.9C111.417 242.787 111.662 242.73 111.936 242.73C111.982 242.73 112.026 242.733 112.066 242.74C112.109 242.743 112.141 242.75 112.161 242.76V244.15C112.131 244.137 112.094 244.128 112.051 244.125C112.011 244.122 111.974 244.118 111.941 244.115C111.654 244.092 111.409 244.1 111.206 244.14C111.002 244.18 110.837 244.248 110.711 244.345C110.584 244.442 110.492 244.56 110.436 244.7C110.379 244.84 110.351 244.997 110.351 245.17V248H108.891ZM114.722 248L117.312 240.77H118.852L121.437 248H119.982L119.392 246.325H116.792L116.187 248H114.722ZM117.117 245.05H119.042L118.087 242.18L117.117 245.05ZM122.338 249.61V242.83H123.803L123.808 243.575C123.885 243.452 123.978 243.34 124.088 243.24C124.201 243.137 124.326 243.047 124.463 242.97C124.6 242.893 124.748 242.835 124.908 242.795C125.068 242.752 125.236 242.73 125.413 242.73C125.796 242.73 126.138 242.825 126.438 243.015C126.738 243.202 126.973 243.492 127.143 243.885C127.316 244.275 127.403 244.772 127.403 245.375C127.403 246.002 127.31 246.517 127.123 246.92C126.94 247.32 126.686 247.617 126.363 247.81C126.04 248.003 125.675 248.1 125.268 248.1C125.101 248.1 124.945 248.077 124.798 248.03C124.651 247.987 124.515 247.925 124.388 247.845C124.265 247.765 124.153 247.673 124.053 247.57C123.956 247.463 123.871 247.348 123.798 247.225V249.61H122.338ZM124.918 247.03C125.235 247.03 125.5 246.898 125.713 246.635C125.93 246.372 126.038 245.955 126.038 245.385C126.038 244.885 125.935 244.495 125.728 244.215C125.525 243.932 125.255 243.79 124.918 243.79C124.541 243.79 124.26 243.943 124.073 244.25C123.89 244.553 123.798 244.932 123.798 245.385C123.798 245.675 123.838 245.945 123.918 246.195C124.001 246.445 124.125 246.647 124.288 246.8C124.455 246.953 124.665 247.03 124.918 247.03ZM128.373 249.61V242.83H129.838L129.843 243.575C129.92 243.452 130.013 243.34 130.123 243.24C130.236 243.137 130.361 243.047 130.498 242.97C130.635 242.893 130.783 242.835 130.943 242.795C131.103 242.752 131.271 242.73 131.448 242.73C131.831 242.73 132.173 242.825 132.473 243.015C132.773 243.202 133.008 243.492 133.178 243.885C133.351 244.275 133.438 244.772 133.438 245.375C133.438 246.002 133.345 246.517 133.158 246.92C132.975 247.32 132.721 247.617 132.398 247.81C132.075 248.003 131.71 248.1 131.303 248.1C131.136 248.1 130.98 248.077 130.833 248.03C130.686 247.987 130.55 247.925 130.423 247.845C130.3 247.765 130.188 247.673 130.088 247.57C129.991 247.463 129.906 247.348 129.833 247.225V249.61H128.373ZM130.953 247.03C131.27 247.03 131.535 246.898 131.748 246.635C131.965 246.372 132.073 245.955 132.073 245.385C132.073 244.885 131.97 244.495 131.763 244.215C131.56 243.932 131.29 243.79 130.953 243.79C130.576 243.79 130.295 243.943 130.108 244.25C129.925 244.553 129.833 244.932 129.833 245.385C129.833 245.675 129.873 245.945 129.953 246.195C130.036 246.445 130.16 246.647 130.323 246.8C130.49 246.953 130.7 247.03 130.953 247.03Z" fill="#BA4270"/>
<path opacity="0.5" d="M238.609 246.295C238.609 246.678 238.566 247.005 238.479 247.275C238.392 247.545 238.237 247.75 238.014 247.89C237.794 248.03 237.481 248.1 237.074 248.1C236.817 248.1 236.576 248.07 236.349 248.01C236.126 247.95 235.977 247.905 235.904 247.875L235.969 246.99C236.072 247.027 236.191 247.073 236.324 247.13C236.461 247.183 236.629 247.21 236.829 247.21C237.156 247.21 237.379 247.12 237.499 246.94C237.622 246.76 237.684 246.457 237.684 246.03V240.77H238.609V246.295ZM242.041 248.1C241.771 248.097 241.516 248.058 241.276 247.985C241.039 247.908 240.829 247.797 240.646 247.65C240.462 247.503 240.317 247.322 240.211 247.105C240.107 246.885 240.056 246.63 240.056 246.34V242.83H240.981V246.245C240.981 246.582 241.084 246.855 241.291 247.065C241.501 247.275 241.816 247.38 242.236 247.38C242.616 247.38 242.921 247.282 243.151 247.085C243.384 246.885 243.501 246.588 243.501 246.195V242.83H244.421V248H243.686L243.591 247.01C243.527 247.27 243.419 247.48 243.266 247.64C243.116 247.8 242.934 247.918 242.721 247.995C242.511 248.068 242.284 248.103 242.041 248.1ZM247.698 248.1C247.338 248.1 247.003 248.045 246.693 247.935C246.387 247.822 246.132 247.647 245.928 247.41C245.725 247.17 245.597 246.865 245.543 246.495H246.383C246.43 246.698 246.513 246.868 246.633 247.005C246.757 247.138 246.91 247.24 247.093 247.31C247.277 247.377 247.477 247.41 247.693 247.41C248.04 247.41 248.32 247.345 248.533 247.215C248.747 247.085 248.853 246.885 248.853 246.615C248.853 246.425 248.797 246.273 248.683 246.16C248.573 246.043 248.402 245.958 248.168 245.905L247.098 245.64C246.682 245.54 246.348 245.383 246.098 245.17C245.848 244.957 245.723 244.658 245.723 244.275C245.72 243.972 245.792 243.705 245.938 243.475C246.085 243.245 246.305 243.063 246.598 242.93C246.892 242.797 247.257 242.73 247.693 242.73C248.253 242.73 248.705 242.857 249.048 243.11C249.395 243.36 249.575 243.728 249.588 244.215H248.773C248.74 243.968 248.628 243.773 248.438 243.63C248.252 243.483 248 243.41 247.683 243.41C247.353 243.41 247.085 243.477 246.878 243.61C246.672 243.74 246.568 243.943 246.568 244.22C246.568 244.403 246.642 244.548 246.788 244.655C246.935 244.758 247.152 244.845 247.438 244.915L248.473 245.175C248.713 245.238 248.91 245.322 249.063 245.425C249.22 245.528 249.343 245.643 249.433 245.77C249.527 245.897 249.592 246.03 249.628 246.17C249.668 246.307 249.688 246.438 249.688 246.565C249.688 246.882 249.608 247.155 249.448 247.385C249.292 247.612 249.065 247.788 248.768 247.915C248.475 248.038 248.118 248.1 247.698 248.1ZM253.5 243.505H252.335V246.72C252.335 246.903 252.353 247.038 252.39 247.125C252.43 247.208 252.495 247.262 252.585 247.285C252.678 247.308 252.805 247.32 252.965 247.32H253.53V247.94C253.466 247.963 253.37 247.983 253.24 248C253.113 248.017 252.955 248.025 252.765 248.025C252.408 248.025 252.131 247.977 251.935 247.88C251.738 247.783 251.6 247.64 251.52 247.45C251.443 247.26 251.405 247.027 251.405 246.75V243.505H250.565V242.83H251.43L251.655 241.325H252.335V242.825H253.5V243.505ZM262.028 240.77H262.953V248H262.128L258.248 242.3V248H257.323V240.77H258.208L262.028 246.39V240.77ZM266.659 248.1C266.182 248.1 265.765 247.998 265.409 247.795C265.052 247.588 264.775 247.287 264.579 246.89C264.382 246.493 264.284 246.008 264.284 245.435C264.284 244.895 264.375 244.422 264.559 244.015C264.742 243.608 265.01 243.293 265.364 243.07C265.72 242.843 266.152 242.73 266.659 242.73C267.135 242.73 267.549 242.835 267.899 243.045C268.252 243.252 268.525 243.557 268.719 243.96C268.912 244.363 269.009 244.855 269.009 245.435C269.009 245.962 268.919 246.425 268.739 246.825C268.562 247.225 268.299 247.538 267.949 247.765C267.602 247.988 267.172 248.1 266.659 248.1ZM266.659 247.37C266.969 247.37 267.23 247.292 267.444 247.135C267.657 246.978 267.819 246.753 267.929 246.46C268.039 246.167 268.094 245.818 268.094 245.415C268.094 245.045 268.045 244.713 267.949 244.42C267.852 244.123 267.697 243.888 267.484 243.715C267.274 243.542 266.999 243.455 266.659 243.455C266.345 243.455 266.08 243.533 265.864 243.69C265.647 243.843 265.482 244.067 265.369 244.36C265.259 244.653 265.204 245.005 265.204 245.415C265.204 245.778 265.254 246.108 265.354 246.405C265.454 246.702 265.61 246.937 265.824 247.11C266.037 247.283 266.315 247.37 266.659 247.37ZM276.833 242.83L275.268 248H274.358L273.178 244.185L272.058 248H271.153L269.558 242.83H270.413L271.598 246.805H271.678L272.843 242.83H273.543L274.753 246.795H274.833L275.968 242.83H276.833Z" fill="#36536B"/>
</g>
<defs>
<filter id="filter0_d_0_4453" x="0.567871" y="0.569458" width="417.649" height="658.861" filterUnits="userSpaceOnUse" color-interpolation-filters="sRGB">
<feFlood flood-opacity="0" result="BackgroundImageFix"/>
<feColorMatrix in="SourceAlpha" type="matrix" values="0 0 0 0 0 0 0 0 0 0 0 0 0 0 0 0 0 0 127 0" result="hardAlpha"/>
<feOffset dx="25" dy="25"/>
<feGaussianBlur stdDeviation="40"/>
<feColorMatrix type="matrix" values="0 0 0 0 0.212302 0 0 0 0 0.32521 0 0 0 0 0.419299 0 0 0 0.300727 0"/>
<feBlend mode="normal" in2="BackgroundImageFix" result="effect1_dropShadow_0_4453"/>
<feBlend mode="normal" in="SourceGraphic" in2="effect1_dropShadow_0_4453" result="shape"/>
</filter>
<filter id="filter1_d_0_4453" x="70" y="217" width="248" height="117" filterUnits="userSpaceOnUse" color-interpolation-filters="sRGB">
<feFlood flood-opacity="0" result="BackgroundImageFix"/>
<feColorMatrix in="SourceAlpha" type="matrix" values="0 0 0 0 0 0 0 0 0 0 0 0 0 0 0 0 0 0 127 0" result="hardAlpha"/>
<feMorphology radius="10" operator="erode" in="SourceAlpha" result="effect1_dropShadow_0_4453"/>
<feOffset dx="10" dy="10"/>
<feGaussianBlur stdDeviation="12.5"/>
<feColorMatrix type="matrix" values="0 0 0 0 0.212302 0 0 0 0 0.32521 0 0 0 0 0.419299 0 0 0 0.25 0"/>
<feBlend mode="normal" in2="BackgroundImageFix" result="effect1_dropShadow_0_4453"/>
<feBlend mode="normal" in="SourceGraphic" in2="effect1_dropShadow_0_4453" result="shape"/>
</filter>
<linearGradient id="paint0_linear_0_4453" x1="63.0146" y1="55" x2="63.0146" y2="67.3239" gradientUnits="userSpaceOnUse">
<stop stop-color="#454545"/>
<stop offset="0.226279" stop-color="#999999"/>
<stop offset="1" stop-color="white"/>
</linearGradient>
<linearGradient id="paint1_linear_0_4453" x1="313.103" y1="140.747" x2="303.642" y2="140.747" gradientUnits="userSpaceOnUse">
<stop stop-color="white" stop-opacity="0.01"/>
<stop offset="0.222178" stop-color="#BABABA"/>
<stop offset="0.54678" stop-color="white" stop-opacity="0.01"/>
<stop offset="1" stop-color="white" stop-opacity="0.01"/>
</linearGradient>
<linearGradient id="paint2_linear_0_4453" x1="55.568" y1="140.487" x2="65.044" y2="140.487" gradientUnits="userSpaceOnUse">
<stop stop-color="white" stop-opacity="0.01"/>
<stop offset="0.222178" stop-color="#BABABA"/>
<stop offset="0.54678" stop-color="white" stop-opacity="0.01"/>
<stop offset="1" stop-color="white" stop-opacity="0.01"/>
</linearGradient>
<linearGradient id="paint3_linear_0_4453" x1="68.907" y1="67.4445" x2="68.907" y2="528.824" gradientUnits="userSpaceOnUse">
<stop stop-color="#9CB6CD"/>
<stop offset="0.420564" stop-color="#9AB3CA"/>
<stop offset="0.716592" stop-color="#557496"/>
<stop offset="1" stop-color="#475178"/>
</linearGradient>
<clipPath id="clip0_0_4453">
<rect width="233" height="465" fill="white" transform="translate(68.0742 67.4445)"/>
</clipPath>
<clipPath id="clip1_0_4453">
<rect width="187" height="11" fill="white" transform="translate(91 238)"/>
</clipPath>
</defs>
</svg>
